<?xml version="1.0" encoding="utf-8"?>
<!-- Generator: Adobe Illustrator 21.0.2, SVG Export Plug-In . SVG Version: 6.00 Build 0)  -->
<svg version="1.1" id="Layer_1" xmlns="http://www.w3.org/2000/svg" xmlns:xlink="http://www.w3.org/1999/xlink" x="0px" y="0px"
	 viewBox="0 0 30 30" style="enable-background:new 0 0 30 30;" xml:space="preserve">
<style type="text/css">
	.st0{fill:#FFFFFF;}
	.st1{fill:none;}
</style>
<g>
	<path class="st0" d="M9.5,27c11.2,0,17.2-9.3,17.2-17.2c0-0.3,0-0.5,0-0.8c1.3-0.8,2.2-1.9,3-3.2c-1.1,0.5-2.2,0.8-3.5,0.9
		c1.3-0.8,2.2-1.9,2.7-3.3c-1.1,0.6-2.5,1.3-3.8,1.4C24,3.8,22.4,3,20.7,3c-3.3,0-6,2.7-6,6c0,0.5,0,0.9,0.2,1.4
		c-5-0.3-9.5-2.7-12.5-6.3C1.7,5.1,1.4,6,1.4,7.1c0,2.1,1.1,3.9,2.7,5c-0.9,0-1.9-0.3-2.7-0.8l0,0c0,3,2.1,5.4,4.9,6
		c-0.5,0.2-1.1,0.2-1.6,0.2c-0.3,0-0.8,0-1.1-0.2c0.8,2.4,3,4.1,5.7,4.3c-2.1,1.6-4.7,2.5-7.6,2.5c-0.5,0-0.9,0-1.4-0.2
		C2.9,26,6,27,9.5,27"/>
	<rect x="-8.7" y="-8.7" class="st1" width="47.3" height="47.3"/>
</g>
</svg>
